# MagicaVoxel @ Ephtracy

# group
o 

# material
mtllib tansu.mtl
usemtl palette

# normals
vn -1 0 0
vn 1 0 0
vn 0 0 1
vn 0 0 -1
vn 0 -1 0
vn 0 1 0

# texcoords
vt 0.0292969 0.5
vt 0.0371094 0.5
vt 0.0683594 0.5

# verts
v -7.2 0 4.4
v -7.2 0 -4.5
v -7.2 0.2 4.4
v -7.2 0.2 4.1
v -7.2 0.3 4.4
v -7.2 0.3 4.2
v -7.2 4.5 4.4
v -7.2 4.5 4.2
v -7.2 4.6 4.4
v -7.2 4.6 4.2
v -7.2 8.8 4.4
v -7.2 8.8 4.2
v -7.2 8.9 4.4
v -7.2 8.9 4.2
v -7.2 13.1 4.4
v -7.2 13.1 4.2
v -7.2 13.2 4.4
v -7.2 13.2 4.1
v -7.2 13.4 4.4
v -7.2 13.4 -4.5
v -7.1 0.2 4.3
v -7.1 0.2 4.1
v -7.1 0.3 4.3
v -7.1 0.3 4.2
v -7.1 4.5 4.3
v -7.1 4.5 4.2
v -7.1 4.6 4.3
v -7.1 4.6 4.2
v -7.1 8.8 4.3
v -7.1 8.8 4.2
v -7.1 8.9 4.3
v -7.1 8.9 4.2
v -7.1 13.1 4.3
v -7.1 13.1 4.2
v -7.1 13.2 4.3
v -7.1 13.2 4.1
v -1.3 3.2 4.7
v -1.3 3.2 4.4
v -1.3 3.6 4.7
v -1.3 3.6 4.4
v -1.3 11.9 4.7
v -1.3 11.9 4.4
v -1.3 12.3 4.7
v -1.3 12.3 4.4
v -1.2 7.6 4.7
v -1.2 7.6 4.4
v -1.2 8 4.7
v -1.2 8 4.4
v 1.3 3.2 4.7
v 1.3 3.2 4.4
v 1.3 3.6 4.7
v 1.3 3.6 4.4
v 1.3 7.6 4.7
v 1.3 7.6 4.4
v 1.3 8 4.7
v 1.3 8 4.4
v 1.3 11.9 4.7
v 1.3 11.9 4.4
v 1.3 12.3 4.7
v 1.3 12.3 4.4
v 7.1 0.2 4.3
v 7.1 0.2 4.1
v 7.1 0.3 4.3
v 7.1 0.3 4.2
v 7.1 4.5 4.3
v 7.1 4.5 4.2
v 7.1 4.6 4.3
v 7.1 4.6 4.2
v 7.1 8.8 4.3
v 7.1 8.8 4.2
v 7.1 8.9 4.3
v 7.1 8.9 4.2
v 7.1 13.1 4.3
v 7.1 13.1 4.2
v 7.1 13.2 4.3
v 7.1 13.2 4.1
v 7.2 0 4.4
v 7.2 0 -4.5
v 7.2 0.2 4.4
v 7.2 0.2 4.1
v 7.2 0.3 4.4
v 7.2 0.3 4.2
v 7.2 4.5 4.4
v 7.2 4.5 4.2
v 7.2 4.6 4.4
v 7.2 4.6 4.2
v 7.2 8.8 4.4
v 7.2 8.8 4.2
v 7.2 8.9 4.4
v 7.2 8.9 4.2
v 7.2 13.1 4.4
v 7.2 13.1 4.2
v 7.2 13.2 4.4
v 7.2 13.2 4.1
v 7.2 13.4 4.4
v 7.2 13.4 -4.5
v -1.3 3.2 4.7
v -1.3 3.6 4.7
v -1.3 11.9 4.7
v -1.3 12.3 4.7
v -1.2 7.6 4.7
v -1.2 8 4.7
v 1.3 3.2 4.7
v 1.3 3.6 4.7
v 1.3 7.6 4.7
v 1.3 8 4.7
v 1.3 11.9 4.7
v 1.3 12.3 4.7
v -7.2 0 4.4
v -7.2 0.2 4.4
v -7.2 0.3 4.4
v -7.2 4.5 4.4
v -7.2 4.6 4.4
v -7.2 8.8 4.4
v -7.2 8.9 4.4
v -7.2 13.1 4.4
v -7.2 13.2 4.4
v -7.2 13.4 4.4
v -1.3 3.2 4.4
v -1.3 3.6 4.4
v -1.3 11.9 4.4
v -1.3 12.3 4.4
v -1.2 7.6 4.4
v -1.2 8 4.4
v 1.3 3.2 4.4
v 1.3 3.6 4.4
v 1.3 7.6 4.4
v 1.3 8 4.4
v 1.3 11.9 4.4
v 1.3 12.3 4.4
v 7.2 0 4.4
v 7.2 0.2 4.4
v 7.2 0.3 4.4
v 7.2 4.5 4.4
v 7.2 4.6 4.4
v 7.2 8.8 4.4
v 7.2 8.9 4.4
v 7.2 13.1 4.4
v 7.2 13.2 4.4
v 7.2 13.4 4.4
v -7.1 0.2 4.3
v -7.1 0.3 4.3
v -7.1 4.5 4.3
v -7.1 4.6 4.3
v -7.1 8.8 4.3
v -7.1 8.9 4.3
v -7.1 13.1 4.3
v -7.1 13.2 4.3
v 7.1 0.2 4.3
v 7.1 0.3 4.3
v 7.1 4.5 4.3
v 7.1 4.6 4.3
v 7.1 8.8 4.3
v 7.1 8.9 4.3
v 7.1 13.1 4.3
v 7.1 13.2 4.3
v -7.2 0.2 4.1
v -7.2 13.2 4.1
v -7.1 0.2 4.1
v -7.1 13.2 4.1
v 7.1 0.2 4.1
v 7.1 13.2 4.1
v 7.2 0.2 4.1
v 7.2 13.2 4.1
v -7.2 0.3 4.2
v -7.2 4.5 4.2
v -7.2 4.6 4.2
v -7.2 8.8 4.2
v -7.2 8.9 4.2
v -7.2 13.1 4.2
v -7.1 0.3 4.2
v -7.1 4.5 4.2
v -7.1 4.6 4.2
v -7.1 8.8 4.2
v -7.1 8.9 4.2
v -7.1 13.1 4.2
v 7.1 0.3 4.2
v 7.1 4.5 4.2
v 7.1 4.6 4.2
v 7.1 8.8 4.2
v 7.1 8.9 4.2
v 7.1 13.1 4.2
v 7.2 0.3 4.2
v 7.2 4.5 4.2
v 7.2 4.6 4.2
v 7.2 8.8 4.2
v 7.2 8.9 4.2
v 7.2 13.1 4.2
v -7.2 0 -4.5
v -7.2 13.4 -4.5
v 7.2 0 -4.5
v 7.2 13.4 -4.5
v -7.2 0 4.4
v 7.2 0 4.4
v -7.2 0 -4.5
v 7.2 0 -4.5
v -7.2 0.3 4.4
v 7.2 0.3 4.4
v -7.1 0.3 4.3
v 7.1 0.3 4.3
v -7.2 0.3 4.2
v -7.1 0.3 4.2
v 7.1 0.3 4.2
v 7.2 0.3 4.2
v -1.3 3.2 4.7
v 1.3 3.2 4.7
v -1.3 3.2 4.4
v 1.3 3.2 4.4
v -7.2 4.6 4.4
v 7.2 4.6 4.4
v -7.1 4.6 4.3
v 7.1 4.6 4.3
v -7.2 4.6 4.2
v -7.1 4.6 4.2
v 7.1 4.6 4.2
v 7.2 4.6 4.2
v -1.2 7.6 4.7
v 1.3 7.6 4.7
v -1.2 7.6 4.4
v 1.3 7.6 4.4
v -7.2 8.9 4.4
v 7.2 8.9 4.4
v -7.1 8.9 4.3
v 7.1 8.9 4.3
v -7.2 8.9 4.2
v -7.1 8.9 4.2
v 7.1 8.9 4.2
v 7.2 8.9 4.2
v -1.3 11.9 4.7
v 1.3 11.9 4.7
v -1.3 11.9 4.4
v 1.3 11.9 4.4
v -7.2 13.2 4.4
v 7.2 13.2 4.4
v -7.1 13.2 4.3
v 7.1 13.2 4.3
v -7.2 13.2 4.1
v -7.1 13.2 4.1
v 7.1 13.2 4.1
v 7.2 13.2 4.1
v -7.2 0.2 4.4
v 7.2 0.2 4.4
v -7.1 0.2 4.3
v 7.1 0.2 4.3
v -7.2 0.2 4.1
v -7.1 0.2 4.1
v 7.1 0.2 4.1
v 7.2 0.2 4.1
v -1.3 3.6 4.7
v 1.3 3.6 4.7
v -1.3 3.6 4.4
v 1.3 3.6 4.4
v -7.2 4.5 4.4
v 7.2 4.5 4.4
v -7.1 4.5 4.3
v 7.1 4.5 4.3
v -7.2 4.5 4.2
v -7.1 4.5 4.2
v 7.1 4.5 4.2
v 7.2 4.5 4.2
v -1.2 8 4.7
v 1.3 8 4.7
v -1.2 8 4.4
v 1.3 8 4.4
v -7.2 8.8 4.4
v 7.2 8.8 4.4
v -7.1 8.8 4.3
v 7.1 8.8 4.3
v -7.2 8.8 4.2
v -7.1 8.8 4.2
v 7.1 8.8 4.2
v 7.2 8.8 4.2
v -1.3 12.3 4.7
v 1.3 12.3 4.7
v -1.3 12.3 4.4
v 1.3 12.3 4.4
v -7.2 13.1 4.4
v 7.2 13.1 4.4
v -7.1 13.1 4.3
v 7.1 13.1 4.3
v -7.2 13.1 4.2
v -7.1 13.1 4.2
v 7.1 13.1 4.2
v 7.2 13.1 4.2
v -7.2 13.4 4.4
v 7.2 13.4 4.4
v -7.2 13.4 -4.5
v 7.2 13.4 -4.5

# faces
f 3/3/1 2/3/1 1/3/1
f 4/3/1 2/3/1 3/3/1
f 7/3/1 6/3/1 5/3/1
f 8/3/1 6/3/1 7/3/1
f 11/3/1 10/3/1 9/3/1
f 12/3/1 10/3/1 11/3/1
f 15/3/1 14/3/1 13/3/1
f 16/3/1 14/3/1 15/3/1
f 18/3/1 2/3/1 4/3/1
f 19/3/1 18/3/1 17/3/1
f 20/3/1 2/3/1 18/3/1
f 20/3/1 18/3/1 19/3/1
f 23/1/1 22/1/1 21/1/1
f 24/1/1 22/1/1 23/1/1
f 26/1/1 22/1/1 24/1/1
f 27/1/1 26/1/1 25/1/1
f 28/1/1 22/1/1 26/1/1
f 28/1/1 26/1/1 27/1/1
f 30/1/1 22/1/1 28/1/1
f 31/1/1 30/1/1 29/1/1
f 32/1/1 22/1/1 30/1/1
f 32/1/1 30/1/1 31/1/1
f 34/1/1 22/1/1 32/1/1
f 35/1/1 34/1/1 33/1/1
f 36/1/1 22/1/1 34/1/1
f 36/1/1 34/1/1 35/1/1
f 39/2/1 38/2/1 37/2/1
f 40/2/1 38/2/1 39/2/1
f 43/2/1 42/2/1 41/2/1
f 44/2/1 42/2/1 43/2/1
f 47/2/1 46/2/1 45/2/1
f 48/2/1 46/2/1 47/2/1
f 49/2/2 50/2/2 51/2/2
f 51/2/2 50/2/2 52/2/2
f 53/2/2 54/2/2 55/2/2
f 55/2/2 54/2/2 56/2/2
f 57/2/2 58/2/2 59/2/2
f 59/2/2 58/2/2 60/2/2
f 61/1/2 62/1/2 63/1/2
f 63/1/2 62/1/2 64/1/2
f 64/1/2 62/1/2 66/1/2
f 65/1/2 66/1/2 67/1/2
f 66/1/2 62/1/2 68/1/2
f 67/1/2 66/1/2 68/1/2
f 68/1/2 62/1/2 70/1/2
f 69/1/2 70/1/2 71/1/2
f 70/1/2 62/1/2 72/1/2
f 71/1/2 70/1/2 72/1/2
f 72/1/2 62/1/2 74/1/2
f 73/1/2 74/1/2 75/1/2
f 74/1/2 62/1/2 76/1/2
f 75/1/2 74/1/2 76/1/2
f 77/3/2 78/3/2 79/3/2
f 79/3/2 78/3/2 80/3/2
f 81/3/2 82/3/2 83/3/2
f 83/3/2 82/3/2 84/3/2
f 85/3/2 86/3/2 87/3/2
f 87/3/2 86/3/2 88/3/2
f 89/3/2 90/3/2 91/3/2
f 91/3/2 90/3/2 92/3/2
f 80/3/2 78/3/2 94/3/2
f 93/3/2 94/3/2 95/3/2
f 94/3/2 78/3/2 96/3/2
f 95/3/2 94/3/2 96/3/2
f 103/2/3 98/2/3 97/2/3
f 104/2/3 98/2/3 103/2/3
f 105/2/3 102/2/3 101/2/3
f 106/2/3 102/2/3 105/2/3
f 107/2/3 100/2/3 99/2/3
f 108/2/3 100/2/3 107/2/3
f 119/3/3 112/3/3 111/3/3
f 120/3/3 112/3/3 119/3/3
f 121/3/3 116/3/3 115/3/3
f 122/3/3 116/3/3 121/3/3
f 123/3/3 114/3/3 113/3/3
f 124/3/3 114/3/3 123/3/3
f 125/3/3 119/3/3 111/3/3
f 126/3/3 112/3/3 120/3/3
f 127/3/3 123/3/3 113/3/3
f 128/3/3 114/3/3 124/3/3
f 129/3/3 121/3/3 115/3/3
f 130/3/3 116/3/3 122/3/3
f 131/3/3 110/3/3 109/3/3
f 132/3/3 110/3/3 131/3/3
f 133/3/3 125/3/3 111/3/3
f 133/3/3 126/3/3 125/3/3
f 134/3/3 112/3/3 126/3/3
f 134/3/3 126/3/3 133/3/3
f 135/3/3 127/3/3 113/3/3
f 135/3/3 128/3/3 127/3/3
f 136/3/3 114/3/3 128/3/3
f 136/3/3 128/3/3 135/3/3
f 137/3/3 130/3/3 129/3/3
f 137/3/3 129/3/3 115/3/3
f 138/3/3 116/3/3 130/3/3
f 138/3/3 130/3/3 137/3/3
f 139/3/3 118/3/3 117/3/3
f 140/3/3 118/3/3 139/3/3
f 149/1/3 142/1/3 141/1/3
f 150/1/3 142/1/3 149/1/3
f 151/1/3 144/1/3 143/1/3
f 152/1/3 144/1/3 151/1/3
f 153/1/3 146/1/3 145/1/3
f 154/1/3 146/1/3 153/1/3
f 155/1/3 148/1/3 147/1/3
f 156/1/3 148/1/3 155/1/3
f 159/3/3 158/3/3 157/3/3
f 160/3/3 158/3/3 159/3/3
f 163/3/3 162/3/3 161/3/3
f 164/3/3 162/3/3 163/3/3
f 165/3/4 166/3/4 171/3/4
f 171/3/4 166/3/4 172/3/4
f 167/3/4 168/3/4 173/3/4
f 173/3/4 168/3/4 174/3/4
f 169/3/4 170/3/4 175/3/4
f 175/3/4 170/3/4 176/3/4
f 177/3/4 178/3/4 183/3/4
f 183/3/4 178/3/4 184/3/4
f 179/3/4 180/3/4 185/3/4
f 185/3/4 180/3/4 186/3/4
f 181/3/4 182/3/4 187/3/4
f 187/3/4 182/3/4 188/3/4
f 189/3/4 190/3/4 191/3/4
f 191/3/4 190/3/4 192/3/4
f 195/3/5 194/3/5 193/3/5
f 196/3/5 194/3/5 195/3/5
f 199/3/5 198/3/5 197/3/5
f 200/3/5 198/3/5 199/3/5
f 201/3/5 199/3/5 197/3/5
f 202/3/5 199/3/5 201/3/5
f 203/3/5 198/3/5 200/3/5
f 204/3/5 198/3/5 203/3/5
f 207/2/5 206/2/5 205/2/5
f 208/2/5 206/2/5 207/2/5
f 211/3/5 210/3/5 209/3/5
f 212/3/5 210/3/5 211/3/5
f 213/3/5 211/3/5 209/3/5
f 214/3/5 211/3/5 213/3/5
f 215/3/5 210/3/5 212/3/5
f 216/3/5 210/3/5 215/3/5
f 219/2/5 218/2/5 217/2/5
f 220/2/5 218/2/5 219/2/5
f 223/3/5 222/3/5 221/3/5
f 224/3/5 222/3/5 223/3/5
f 225/3/5 223/3/5 221/3/5
f 226/3/5 223/3/5 225/3/5
f 227/3/5 222/3/5 224/3/5
f 228/3/5 222/3/5 227/3/5
f 231/2/5 230/2/5 229/2/5
f 232/2/5 230/2/5 231/2/5
f 235/3/5 234/3/5 233/3/5
f 236/3/5 234/3/5 235/3/5
f 237/3/5 235/3/5 233/3/5
f 238/3/5 235/3/5 237/3/5
f 239/3/5 234/3/5 236/3/5
f 240/3/5 234/3/5 239/3/5
f 241/3/6 242/3/6 243/3/6
f 243/3/6 242/3/6 244/3/6
f 241/3/6 243/3/6 245/3/6
f 245/3/6 243/3/6 246/3/6
f 244/3/6 242/3/6 247/3/6
f 247/3/6 242/3/6 248/3/6
f 249/2/6 250/2/6 251/2/6
f 251/2/6 250/2/6 252/2/6
f 253/3/6 254/3/6 255/3/6
f 255/3/6 254/3/6 256/3/6
f 253/3/6 255/3/6 257/3/6
f 257/3/6 255/3/6 258/3/6
f 256/3/6 254/3/6 259/3/6
f 259/3/6 254/3/6 260/3/6
f 261/2/6 262/2/6 263/2/6
f 263/2/6 262/2/6 264/2/6
f 265/3/6 266/3/6 267/3/6
f 267/3/6 266/3/6 268/3/6
f 265/3/6 267/3/6 269/3/6
f 269/3/6 267/3/6 270/3/6
f 268/3/6 266/3/6 271/3/6
f 271/3/6 266/3/6 272/3/6
f 273/2/6 274/2/6 275/2/6
f 275/2/6 274/2/6 276/2/6
f 277/3/6 278/3/6 279/3/6
f 279/3/6 278/3/6 280/3/6
f 277/3/6 279/3/6 281/3/6
f 281/3/6 279/3/6 282/3/6
f 280/3/6 278/3/6 283/3/6
f 283/3/6 278/3/6 284/3/6
f 285/3/6 286/3/6 287/3/6
f 287/3/6 286/3/6 288/3/6
