# MagicaVoxel @ Ephtracy

# group
o 

# material
mtllib tansu.mtl
usemtl palette

# normals
vn -1 0 0
vn 1 0 0
vn 0 0 1
vn 0 0 -1
vn 0 -1 0
vn 0 1 0

# texcoords
vt 0.0292969 0.5
vt 0.0371094 0.5
vt 0.0683594 0.5

# verts
v 0.8 7 -0.6
v 0.8 7 -9.5
v 0.8 7.2 -0.6
v 0.8 7.2 -0.9
v 0.8 7.3 -0.6
v 0.8 7.3 -0.8
v 0.8 11.5 -0.6
v 0.8 11.5 -0.8
v 0.8 11.6 -0.6
v 0.8 11.6 -0.8
v 0.8 15.8 -0.6
v 0.8 15.8 -0.8
v 0.8 15.9 -0.6
v 0.8 15.9 -0.8
v 0.8 19.6 -0.6
v 0.8 19.6 -0.8
v 0.8 19.6 -0.9
v 0.8 19.6 -9.5
v 0.9 7.2 -0.7
v 0.9 7.2 -0.9
v 0.9 7.3 -0.7
v 0.9 7.3 -0.8
v 0.9 11.5 -0.7
v 0.9 11.5 -0.8
v 0.9 11.6 -0.7
v 0.9 11.6 -0.8
v 0.9 15.8 -0.7
v 0.9 15.8 -0.8
v 0.9 15.9 -0.7
v 0.9 15.9 -0.8
v 0.9 19.6 -0.8
v 0.9 19.6 -0.9
v 6.7 10.2 -0.3
v 6.7 10.2 -0.6
v 6.7 10.6 -0.3
v 6.7 10.6 -0.6
v 6.7 18.9 -0.3
v 6.7 18.9 -0.6
v 6.7 19.3 -0.3
v 6.7 19.3 -0.6
v 6.8 14.6 -0.3
v 6.8 14.6 -0.6
v 6.8 15 -0.3
v 6.8 15 -0.6
v 9.3 10.2 -0.3
v 9.3 10.2 -0.6
v 9.3 10.6 -0.3
v 9.3 10.6 -0.6
v 9.3 14.6 -0.3
v 9.3 14.6 -0.6
v 9.3 15 -0.3
v 9.3 15 -0.6
v 9.3 18.9 -0.3
v 9.3 18.9 -0.6
v 9.3 19.3 -0.3
v 9.3 19.3 -0.6
v 12.6 7 -0.6
v 12.6 7 -9.5
v 12.6 7.1 -0.7
v 12.6 7.1 -9.4
v 12.6 7.2 -0.6
v 12.6 7.2 -0.7
v 12.6 7.3 -0.6
v 12.6 7.3 -0.7
v 12.6 7.3 -9.4
v 12.6 11.5 -0.6
v 12.6 11.5 -0.7
v 12.6 11.5 -0.8
v 12.6 11.6 -0.6
v 12.6 11.6 -0.7
v 12.6 11.6 -0.8
v 12.6 15.8 -0.6
v 12.6 15.8 -0.7
v 12.6 15.8 -0.8
v 12.6 15.9 -0.6
v 12.6 15.9 -0.7
v 12.6 15.9 -0.8
v 12.6 19.6 -0.6
v 12.6 19.6 -9.5
v 6.7 10.2 -0.3
v 6.7 10.6 -0.3
v 6.7 18.9 -0.3
v 6.7 19.3 -0.3
v 6.8 14.6 -0.3
v 6.8 15 -0.3
v 9.3 10.2 -0.3
v 9.3 10.6 -0.3
v 9.3 14.6 -0.3
v 9.3 15 -0.3
v 9.3 18.9 -0.3
v 9.3 19.3 -0.3
v 0.8 7 -0.6
v 0.8 7.2 -0.6
v 0.8 7.3 -0.6
v 0.8 11.5 -0.6
v 0.8 11.6 -0.6
v 0.8 15.8 -0.6
v 0.8 15.9 -0.6
v 0.8 19.6 -0.6
v 6.7 10.2 -0.6
v 6.7 10.6 -0.6
v 6.7 18.9 -0.6
v 6.7 19.3 -0.6
v 6.8 14.6 -0.6
v 6.8 15 -0.6
v 9.3 10.2 -0.6
v 9.3 10.6 -0.6
v 9.3 14.6 -0.6
v 9.3 15 -0.6
v 9.3 18.9 -0.6
v 9.3 19.3 -0.6
v 12.6 7 -0.6
v 12.6 7.2 -0.6
v 12.6 7.3 -0.6
v 12.6 11.5 -0.6
v 12.6 11.6 -0.6
v 12.6 15.8 -0.6
v 12.6 15.9 -0.6
v 12.6 19.6 -0.6
v 0.9 7.2 -0.7
v 0.9 7.3 -0.7
v 0.9 11.5 -0.7
v 0.9 11.6 -0.7
v 0.9 15.8 -0.7
v 0.9 15.9 -0.7
v 12.6 7.2 -0.7
v 12.6 7.3 -0.7
v 12.6 11.5 -0.7
v 12.6 11.6 -0.7
v 12.6 15.8 -0.7
v 12.6 15.9 -0.7
v 0.8 7.2 -0.9
v 0.8 19.6 -0.9
v 0.9 7.2 -0.9
v 0.9 19.6 -0.9
v 0.8 7.3 -0.8
v 0.8 11.5 -0.8
v 0.8 11.6 -0.8
v 0.8 15.8 -0.8
v 0.8 15.9 -0.8
v 0.8 19.6 -0.8
v 0.9 7.3 -0.8
v 0.9 11.5 -0.8
v 0.9 11.6 -0.8
v 0.9 15.8 -0.8
v 0.9 15.9 -0.8
v 0.9 19.6 -0.8
v 0.8 7 -9.5
v 0.8 19.6 -9.5
v 12.6 7 -9.5
v 12.6 19.6 -9.5
v 0.8 7 -0.6
v 12.6 7 -0.6
v 0.8 7 -9.5
v 12.6 7 -9.5
v 0.8 7.3 -0.6
v 12.6 7.3 -0.6
v 0.9 7.3 -0.7
v 12.6 7.3 -0.7
v 0.8 7.3 -0.8
v 0.9 7.3 -0.8
v 6.7 10.2 -0.3
v 9.3 10.2 -0.3
v 6.7 10.2 -0.6
v 9.3 10.2 -0.6
v 0.8 11.6 -0.6
v 12.6 11.6 -0.6
v 0.9 11.6 -0.7
v 12.6 11.6 -0.7
v 0.8 11.6 -0.8
v 0.9 11.6 -0.8
v 6.8 14.6 -0.3
v 9.3 14.6 -0.3
v 6.8 14.6 -0.6
v 9.3 14.6 -0.6
v 0.8 15.9 -0.6
v 12.6 15.9 -0.6
v 0.9 15.9 -0.7
v 12.6 15.9 -0.7
v 0.8 15.9 -0.8
v 0.9 15.9 -0.8
v 6.7 18.9 -0.3
v 9.3 18.9 -0.3
v 6.7 18.9 -0.6
v 9.3 18.9 -0.6
v 0.8 7.2 -0.6
v 12.6 7.2 -0.6
v 0.9 7.2 -0.7
v 12.6 7.2 -0.7
v 0.8 7.2 -0.9
v 0.9 7.2 -0.9
v 6.7 10.6 -0.3
v 9.3 10.6 -0.3
v 6.7 10.6 -0.6
v 9.3 10.6 -0.6
v 0.8 11.5 -0.6
v 12.6 11.5 -0.6
v 0.9 11.5 -0.7
v 12.6 11.5 -0.7
v 0.8 11.5 -0.8
v 0.9 11.5 -0.8
v 6.8 15 -0.3
v 9.3 15 -0.3
v 6.8 15 -0.6
v 9.3 15 -0.6
v 0.8 15.8 -0.6
v 12.6 15.8 -0.6
v 0.9 15.8 -0.7
v 12.6 15.8 -0.7
v 0.8 15.8 -0.8
v 0.9 15.8 -0.8
v 6.7 19.3 -0.3
v 9.3 19.3 -0.3
v 6.7 19.3 -0.6
v 9.3 19.3 -0.6
v 0.8 19.6 -0.6
v 12.6 19.6 -0.6
v 0.8 19.6 -0.8
v 0.9 19.6 -0.8
v 1 19.6 -0.8
v 0.8 19.6 -0.9
v 0.9 19.6 -0.9
v 1 19.6 -0.9
v 0.8 19.6 -9.5
v 12.6 19.6 -9.5

# faces
f 3/3/1 2/3/1 1/3/1
f 4/3/1 2/3/1 3/3/1
f 7/3/1 6/3/1 5/3/1
f 8/3/1 6/3/1 7/3/1
f 11/3/1 10/3/1 9/3/1
f 12/3/1 10/3/1 11/3/1
f 15/3/1 14/3/1 13/3/1
f 16/3/1 14/3/1 15/3/1
f 17/3/1 2/3/1 4/3/1
f 18/3/1 2/3/1 17/3/1
f 21/1/1 20/1/1 19/1/1
f 22/1/1 20/1/1 21/1/1
f 24/1/1 20/1/1 22/1/1
f 25/1/1 24/1/1 23/1/1
f 26/1/1 20/1/1 24/1/1
f 26/1/1 24/1/1 25/1/1
f 28/1/1 20/1/1 26/1/1
f 29/1/1 28/1/1 27/1/1
f 30/1/1 20/1/1 28/1/1
f 30/1/1 28/1/1 29/1/1
f 31/1/1 20/1/1 30/1/1
f 32/1/1 20/1/1 31/1/1
f 35/2/1 34/2/1 33/2/1
f 36/2/1 34/2/1 35/2/1
f 39/2/1 38/2/1 37/2/1
f 40/2/1 38/2/1 39/2/1
f 43/2/1 42/2/1 41/2/1
f 44/2/1 42/2/1 43/2/1
f 45/2/2 46/2/2 47/2/2
f 47/2/2 46/2/2 48/2/2
f 49/2/2 50/2/2 51/2/2
f 51/2/2 50/2/2 52/2/2
f 53/2/2 54/2/2 55/2/2
f 55/2/2 54/2/2 56/2/2
f 57/3/2 58/3/2 59/3/2
f 59/3/2 58/3/2 60/3/2
f 57/3/2 59/3/2 61/3/2
f 59/1/2 60/1/2 62/1/2
f 61/3/2 59/3/2 62/3/2
f 62/1/2 60/1/2 64/1/2
f 60/3/2 58/3/2 65/3/2
f 64/1/2 60/1/2 65/1/2
f 63/3/2 64/3/2 66/3/2
f 64/3/2 65/3/2 66/3/2
f 66/3/2 65/3/2 67/3/2
f 67/3/2 65/3/2 68/3/2
f 67/1/2 68/1/2 70/1/2
f 68/3/2 65/3/2 71/3/2
f 70/1/2 68/1/2 71/1/2
f 69/3/2 70/3/2 72/3/2
f 70/3/2 71/3/2 72/3/2
f 72/3/2 71/3/2 73/3/2
f 71/3/2 65/3/2 74/3/2
f 73/3/2 71/3/2 74/3/2
f 73/1/2 74/1/2 76/1/2
f 74/3/2 65/3/2 77/3/2
f 76/1/2 74/1/2 77/1/2
f 75/3/2 76/3/2 78/3/2
f 76/3/2 77/3/2 78/3/2
f 65/3/2 58/3/2 79/3/2
f 78/3/2 77/3/2 79/3/2
f 77/3/2 65/3/2 79/3/2
f 86/2/3 81/2/3 80/2/3
f 87/2/3 81/2/3 86/2/3
f 88/2/3 85/2/3 84/2/3
f 89/2/3 85/2/3 88/2/3
f 90/2/3 83/2/3 82/2/3
f 91/2/3 83/2/3 90/2/3
f 100/3/3 95/3/3 94/3/3
f 101/3/3 95/3/3 100/3/3
f 102/3/3 99/3/3 98/3/3
f 103/3/3 99/3/3 102/3/3
f 104/3/3 97/3/3 96/3/3
f 105/3/3 97/3/3 104/3/3
f 106/3/3 100/3/3 94/3/3
f 107/3/3 95/3/3 101/3/3
f 108/3/3 104/3/3 96/3/3
f 109/3/3 97/3/3 105/3/3
f 110/3/3 102/3/3 98/3/3
f 111/3/3 99/3/3 103/3/3
f 112/3/3 93/3/3 92/3/3
f 113/3/3 93/3/3 112/3/3
f 114/3/3 106/3/3 94/3/3
f 114/3/3 107/3/3 106/3/3
f 115/3/3 95/3/3 107/3/3
f 115/3/3 107/3/3 114/3/3
f 116/3/3 108/3/3 96/3/3
f 116/3/3 109/3/3 108/3/3
f 117/3/3 97/3/3 109/3/3
f 117/3/3 109/3/3 116/3/3
f 118/3/3 111/3/3 110/3/3
f 118/3/3 110/3/3 98/3/3
f 119/3/3 99/3/3 111/3/3
f 119/3/3 111/3/3 118/3/3
f 126/1/3 121/1/3 120/1/3
f 127/1/3 121/1/3 126/1/3
f 128/1/3 123/1/3 122/1/3
f 129/1/3 123/1/3 128/1/3
f 130/1/3 125/1/3 124/1/3
f 131/1/3 125/1/3 130/1/3
f 134/3/3 133/3/3 132/3/3
f 135/3/3 133/3/3 134/3/3
f 136/3/4 137/3/4 142/3/4
f 142/3/4 137/3/4 143/3/4
f 138/3/4 139/3/4 144/3/4
f 144/3/4 139/3/4 145/3/4
f 140/3/4 141/3/4 146/3/4
f 146/3/4 141/3/4 147/3/4
f 148/3/4 149/3/4 150/3/4
f 150/3/4 149/3/4 151/3/4
f 154/3/5 153/3/5 152/3/5
f 155/3/5 153/3/5 154/3/5
f 158/3/5 157/3/5 156/3/5
f 159/3/5 157/3/5 158/3/5
f 160/3/5 158/3/5 156/3/5
f 161/3/5 158/3/5 160/3/5
f 164/2/5 163/2/5 162/2/5
f 165/2/5 163/2/5 164/2/5
f 168/3/5 167/3/5 166/3/5
f 169/3/5 167/3/5 168/3/5
f 170/3/5 168/3/5 166/3/5
f 171/3/5 168/3/5 170/3/5
f 174/2/5 173/2/5 172/2/5
f 175/2/5 173/2/5 174/2/5
f 178/3/5 177/3/5 176/3/5
f 179/3/5 177/3/5 178/3/5
f 180/3/5 178/3/5 176/3/5
f 181/3/5 178/3/5 180/3/5
f 184/2/5 183/2/5 182/2/5
f 185/2/5 183/2/5 184/2/5
f 186/3/6 187/3/6 188/3/6
f 188/3/6 187/3/6 189/3/6
f 186/3/6 188/3/6 190/3/6
f 190/3/6 188/3/6 191/3/6
f 192/2/6 193/2/6 194/2/6
f 194/2/6 193/2/6 195/2/6
f 196/3/6 197/3/6 198/3/6
f 198/3/6 197/3/6 199/3/6
f 196/3/6 198/3/6 200/3/6
f 200/3/6 198/3/6 201/3/6
f 202/2/6 203/2/6 204/2/6
f 204/2/6 203/2/6 205/2/6
f 206/3/6 207/3/6 208/3/6
f 208/3/6 207/3/6 209/3/6
f 206/3/6 208/3/6 210/3/6
f 210/3/6 208/3/6 211/3/6
f 212/2/6 213/2/6 214/2/6
f 214/2/6 213/2/6 215/2/6
f 216/3/6 217/3/6 218/3/6
f 218/3/6 217/3/6 219/3/6
f 219/3/6 217/3/6 220/3/6
f 219/1/6 220/1/6 222/1/6
f 220/3/6 217/3/6 223/3/6
f 222/1/6 220/1/6 223/1/6
f 221/3/6 222/3/6 224/3/6
f 222/3/6 223/3/6 224/3/6
f 223/3/6 217/3/6 225/3/6
f 224/3/6 223/3/6 225/3/6
