# MagicaVoxel @ Ephtracy

# group
o 

# material
mtllib tukue.mtl
usemtl palette

# normals
vn -1 0 0
vn 1 0 0
vn 0 0 1
vn 0 0 -1
vn 0 -1 0
vn 0 1 0

# texcoords
vt 0.0292969 0.5
vt 0.146484 0.5
vt 0.220703 0.5
vt 0.224609 0.5
vt 0.236328 0.5
vt 0.283203 0.5
vt 0.322266 0.5
vt 0.412109 0.5
vt 0.482422 0.5
vt 0.560547 0.5
vt 0.583984 0.5
vt 0.677734 0.5
vt 0.689453 0.5
vt 0.771484 0.5
vt 0.849609 0.5
vt 0.912109 0.5
vt 0.916016 0.5
vt 0.919922 0.5
vt 0.958984 0.5
vt 0.990234 0.5

# verts
v -4 4.3 3
v -4 4.3 -3
v -4 5 3
v -4 5 -3
v -3.9 0 2.9
v -3.9 0 2.5
v -3.9 0 -2.5
v -3.9 0 -2.9
v -3.9 4.3 2.9
v -3.9 4.3 2.5
v -3.9 4.3 -2.5
v -3.9 4.3 -2.9
v -2.4 5 2.1
v -2.4 5 -1.2
v -2.4 5.1 2.1
v -2.4 5.1 -1.2
v 1.8 5 -1.6
v 1.8 5 -2.6
v 1.8 5.2 -1.6
v 1.8 5.2 -2.6
v 2.1 5.1 -1.7
v 2.1 5.1 -2.5
v 2.1 5.2 -1.7
v 2.1 5.2 -2.5
v 2.4 5 1.8
v 2.4 5 1
v 2.4 5.1 1.8
v 2.4 5.1 1
v 2.7 5 1.8
v 2.7 5 1
v 2.7 5.1 1.8
v 2.7 5.1 1
v 2.8 5.1 -1.7
v 2.8 5.1 -2.5
v 2.8 5.2 -1.7
v 2.8 5.2 -2.5
v 3 5 1.8
v 3 5 1
v 3 5.1 1.8
v 3 5.1 1
v 3.2 5.1 -1.7
v 3.2 5.1 -2.5
v 3.2 5.2 -1.7
v 3.2 5.2 -2.5
v 3.5 0 2.9
v 3.5 0 2.5
v 3.5 0 -2.5
v 3.5 0 -2.9
v 3.5 4.3 2.9
v 3.5 4.3 2.5
v 3.5 4.3 -2.5
v 3.5 4.3 -2.7
v 3.5 4.4 -2.7
v 3.5 4.4 -2.9
v 3.9 4.3 -2.9
v 3.9 4.3 -3
v 3.9 4.4 -2.9
v 3.9 4.4 -3
v -3.9 4.3 -2.9
v -3.9 4.3 -3
v -3.9 4.4 -2.9
v -3.9 4.4 -3
v -3.5 0 2.9
v -3.5 0 2.5
v -3.5 0 -2.5
v -3.5 0 -2.9
v -3.5 4.3 2.9
v -3.5 4.3 2.5
v -3.5 4.3 -2.5
v -3.5 4.3 -2.7
v -3.5 4.4 -2.7
v -3.5 4.4 -2.9
v 1.9 5 2.1
v 1.9 5 -1.2
v 1.9 5.1 2.1
v 1.9 5.1 -1.2
v 2 5.1 -1.7
v 2 5.1 -2.5
v 2 5.2 -1.7
v 2 5.2 -2.5
v 2.5 5 1.8
v 2.5 5 1
v 2.5 5.1 1.8
v 2.5 5.1 1
v 2.7 5.1 -1.7
v 2.7 5.1 -2.5
v 2.7 5.2 -1.7
v 2.7 5.2 -2.5
v 2.8 5 1.8
v 2.8 5 1
v 2.8 5.1 1.8
v 2.8 5.1 1
v 3.1 5 1.8
v 3.1 5 1
v 3.1 5.1 1.8
v 3.1 5.1 1
v 3.1 5.1 -1.7
v 3.1 5.1 -2.5
v 3.1 5.2 -1.7
v 3.1 5.2 -2.5
v 3.6 5 -1.6
v 3.6 5 -2.6
v 3.6 5.2 -1.6
v 3.6 5.2 -2.6
v 3.9 0 2.9
v 3.9 0 2.5
v 3.9 0 -2.5
v 3.9 0 -2.9
v 3.9 4.3 2.9
v 3.9 4.3 2.5
v 3.9 4.3 -2.5
v 3.9 4.3 -2.9
v 4 4.3 3
v 4 4.3 -3
v 4 5 3
v 4 5 -3
v -4 4.3 3
v -4 5 3
v 4 4.3 3
v 4 5 3
v -3.9 0 2.9
v -3.9 4.3 2.9
v -3.5 0 2.9
v -3.5 4.3 2.9
v 3.5 0 2.9
v 3.5 4.3 2.9
v 3.9 0 2.9
v 3.9 4.3 2.9
v -2.4 5 2.1
v -2.4 5.1 2.1
v 1.9 5 2.1
v 1.9 5.1 2.1
v 2.4 5 1.8
v 2.4 5.1 1.8
v 2.5 5 1.8
v 2.5 5.1 1.8
v 2.7 5 1.8
v 2.7 5.1 1.8
v 2.8 5 1.8
v 2.8 5.1 1.8
v 3 5 1.8
v 3 5.1 1.8
v 3.1 5 1.8
v 3.1 5.1 1.8
v 1.8 5 -1.6
v 1.8 5.2 -1.6
v 3.6 5 -1.6
v 3.6 5.2 -1.6
v -3.9 0 -2.5
v -3.9 4.3 -2.5
v -3.5 0 -2.5
v -3.5 4.3 -2.5
v 2 5.1 -2.5
v 2 5.2 -2.5
v 2.1 5.1 -2.5
v 2.1 5.2 -2.5
v 2.7 5.1 -2.5
v 2.7 5.2 -2.5
v 2.8 5.1 -2.5
v 2.8 5.2 -2.5
v 3.1 5.1 -2.5
v 3.1 5.2 -2.5
v 3.2 5.1 -2.5
v 3.2 5.2 -2.5
v 3.5 0 -2.5
v 3.5 4.3 -2.5
v 3.9 0 -2.5
v 3.9 4.3 -2.5
v -3.9 0 2.5
v -3.9 4.3 2.5
v -3.5 0 2.5
v -3.5 4.3 2.5
v 3.5 0 2.5
v 3.5 4.3 2.5
v 3.9 0 2.5
v 3.9 4.3 2.5
v 2.4 5 1
v 2.4 5.1 1
v 2.5 5 1
v 2.5 5.1 1
v 2.7 5 1
v 2.7 5.1 1
v 2.8 5 1
v 2.8 5.1 1
v 3 5 1
v 3 5.1 1
v 3.1 5 1
v 3.1 5.1 1
v -2.4 5 -1.2
v -2.4 5.1 -1.2
v 1.9 5 -1.2
v 1.9 5.1 -1.2
v 2 5.1 -1.7
v 2 5.2 -1.7
v 2.1 5.1 -1.7
v 2.1 5.2 -1.7
v 2.7 5.1 -1.7
v 2.7 5.2 -1.7
v 2.8 5.1 -1.7
v 2.8 5.2 -1.7
v 3.1 5.1 -1.7
v 3.1 5.2 -1.7
v 3.2 5.1 -1.7
v 3.2 5.2 -1.7
v 1.8 5 -2.6
v 1.8 5.2 -2.6
v 3.6 5 -2.6
v 3.6 5.2 -2.6
v -3.5 4.3 -2.7
v -3.5 4.4 -2.7
v 3.5 4.3 -2.7
v 3.5 4.4 -2.7
v -3.9 0 -2.9
v -3.9 4.3 -2.9
v -3.9 4.4 -2.9
v -3.5 0 -2.9
v -3.5 4.4 -2.9
v 3.5 0 -2.9
v 3.5 4.4 -2.9
v 3.9 0 -2.9
v 3.9 4.3 -2.9
v 3.9 4.4 -2.9
v -4 4.3 -3
v -4 5 -3
v -3.9 4.3 -3
v -3.9 4.4 -3
v 3.9 4.3 -3
v 3.9 4.4 -3
v 4 4.3 -3
v 4 5 -3
v -3.9 0 2.9
v -3.5 0 2.9
v 3.5 0 2.9
v 3.9 0 2.9
v -3.9 0 2.5
v -3.5 0 2.5
v 3.5 0 2.5
v 3.9 0 2.5
v -3.9 0 -2.5
v -3.5 0 -2.5
v 3.5 0 -2.5
v 3.9 0 -2.5
v -3.9 0 -2.9
v -3.5 0 -2.9
v 3.5 0 -2.9
v 3.9 0 -2.9
v -4 4.3 3
v 4 4.3 3
v -3.9 4.3 2.9
v -3.5 4.3 2.9
v 3.5 4.3 2.9
v 3.9 4.3 2.9
v -3.9 4.3 2.5
v -3.5 4.3 2.5
v 3.5 4.3 2.5
v 3.9 4.3 2.5
v -3.9 4.3 -2.5
v -3.5 4.3 -2.5
v 3.5 4.3 -2.5
v 3.9 4.3 -2.5
v -3.5 4.3 -2.7
v 3.5 4.3 -2.7
v -3.9 4.3 -2.9
v 3.9 4.3 -2.9
v -4 4.3 -3
v -3.9 4.3 -3
v 3.9 4.3 -3
v 4 4.3 -3
v -3.5 4.4 -2.7
v 3.5 4.4 -2.7
v -3.9 4.4 -2.9
v -3.5 4.4 -2.9
v 3.5 4.4 -2.9
v 3.9 4.4 -2.9
v -3.9 4.4 -3
v 3.9 4.4 -3
v -4 5 3
v 4 5 3
v -2.4 5 2.1
v 1.9 5 2.1
v 2.4 5 1.8
v 2.5 5 1.8
v 2.7 5 1.8
v 2.8 5 1.8
v 3 5 1.8
v 3.1 5 1.8
v 2.4 5 1
v 2.5 5 1
v 2.7 5 1
v 2.8 5 1
v 3 5 1
v 3.1 5 1
v -2.4 5 -1.2
v 1.9 5 -1.2
v 1.8 5 -1.6
v 3.6 5 -1.6
v 1.8 5 -2.6
v 3.6 5 -2.6
v -4 5 -3
v 4 5 -3
v -2.4 5.1 2.1
v 1.9 5.1 2.1
v 2.4 5.1 1.8
v 2.5 5.1 1.8
v 2.7 5.1 1.8
v 2.8 5.1 1.8
v 3 5.1 1.8
v 3.1 5.1 1.8
v -0.7 5.1 1.4
v -0.3 5.1 1.4
v -0.8 5.1 1.3
v -0.7 5.1 1.3
v -0.3 5.1 1.3
v -0.2 5.1 1.3
v -0.9 5.1 1.2
v -0.8 5.1 1.2
v -0.7 5.1 1.2
v -0.3 5.1 1.2
v -0.2 5.1 1.2
v 0 5.1 1.2
v -1 5.1 1.1
v -0.9 5.1 1.1
v -0.8 5.1 1.1
v -0.2 5.1 1.1
v 0 5.1 1.1
v 0.1 5.1 1.1
v 0 5.1 1
v 0.1 5.1 1
v 0.2 5.1 1
v 2.4 5.1 1
v 2.5 5.1 1
v 2.7 5.1 1
v 2.8 5.1 1
v 3 5.1 1
v 3.1 5.1 1
v -1 5.1 0.9
v -0.9 5.1 0.9
v 0.1 5.1 0.9
v 0.2 5.1 0.9
v 0.3 5.1 0.9
v -0.9 5.1 0.8
v -0.7 5.1 0.8
v 0 5.1 0.8
v 0.2 5.1 0.8
v -0.0999999 5.1 0.7
v 0 5.1 0.7
v 0.2 5.1 0.7
v 0.3 5.1 0.7
v -1.1 5.1 0.6
v -1 5.1 0.6
v -0.7 5.1 0.6
v -0.0999999 5.1 0.6
v 0.1 5.1 0.6
v 0.2 5.1 0.6
v -0.7 5.1 0.5
v -0.5 5.1 0.5
v 0 5.1 0.5
v 0.1 5.1 0.5
v -0.9 5.1 0.4
v -0.8 5.1 0.4
v -0.7 5.1 0.4
v -0.5 5.1 0.4
v -0.4 5.1 0.4
v -0.3 5.1 0.4
v 0.8 5.1 0.4
v 0.9 5.1 0.4
v -1.1 5.1 0.3
v -1 5.1 0.3
v -0.9 5.1 0.3
v -0.8 5.1 0.3
v -0.7 5.1 0.3
v -0.0999999 5.1 0.3
v 0 5.1 0.3
v 0.6 5.1 0.3
v 0.7 5.1 0.3
v -1 5.1 0.2
v -0.9 5.1 0.2
v -0.8 5.1 0.2
v -0.7 5.1 0.2
v -0.4 5.1 0.2
v -0.3 5.1 0.2
v 0.6 5.1 0.2
v 0.7 5.1 0.2
v 0.8 5.1 0.2
v 0.9 5.1 0.2
v -1.1 5.1 0.0999999
v -0.9 5.1 0.0999999
v -0.7 5.1 0.0999999
v -0.3 5.1 0.0999999
v -0.0999999 5.1 0.0999999
v 0 5.1 0.0999999
v 0.6 5.1 0.0999999
v 0.7 5.1 0.0999999
v 0.8 5.1 0.0999999
v 0.9 5.1 0.0999999
v -1.1 5.1 -2.38419e-07
v -1 5.1 -2.38419e-07
v -0.9 5.1 -2.38419e-07
v -0.7 5.1 -2.38419e-07
v -0.3 5.1 -2.38419e-07
v -0.0999999 5.1 -2.38419e-07
v 0.4 5.1 -2.38419e-07
v 0.5 5.1 -2.38419e-07
v 0.6 5.1 -2.38419e-07
v 0.7 5.1 -2.38419e-07
v -1 5.1 -0.1
v -0.9 5.1 -0.1
v 0.4 5.1 -0.1
v 0.5 5.1 -0.1
v 0.6 5.1 -0.1
v 0.8 5.1 -0.1
v 0.9 5.1 -0.1
v -0.0999999 5.1 -0.2
v 0 5.1 -0.2
v 0.6 5.1 -0.2
v 0.7 5.1 -0.2
v 0.4 5.1 -0.3
v 0.5 5.1 -0.3
v 0.7 5.1 -0.3
v 0.8 5.1 -0.3
v 0.3 5.1 -0.4
v 0.4 5.1 -0.4
v 0.8 5.1 -0.4
v 0.9 5.1 -0.4
v 0.5 5.1 -0.5
v 0.6 5.1 -0.5
v 0.3 5.1 -0.6
v 0.5 5.1 -0.6
v 0.6 5.1 -0.6
v 0.9 5.1 -0.6
v -2.4 5.1 -1.2
v 1.9 5.1 -1.2
v 2 5.1 -1.7
v 2.1 5.1 -1.7
v 2.7 5.1 -1.7
v 2.8 5.1 -1.7
v 3.1 5.1 -1.7
v 3.2 5.1 -1.7
v 2 5.1 -2.5
v 2.1 5.1 -2.5
v 2.7 5.1 -2.5
v 2.8 5.1 -2.5
v 3.1 5.1 -2.5
v 3.2 5.1 -2.5
v 1.8 5.2 -1.6
v 3.6 5.2 -1.6
v 1.9 5.2 -1.7
v 2 5.2 -1.7
v 2.1 5.2 -1.7
v 2.2 5.2 -1.7
v 2.3 5.2 -1.7
v 2.4 5.2 -1.7
v 2.5 5.2 -1.7
v 2.6 5.2 -1.7
v 2.7 5.2 -1.7
v 2.8 5.2 -1.7
v 2.9 5.2 -1.7
v 3 5.2 -1.7
v 3.1 5.2 -1.7
v 3.2 5.2 -1.7
v 3.3 5.2 -1.7
v 3.4 5.2 -1.7
v 3.5 5.2 -1.7
v 1.9 5.2 -2.5
v 2 5.2 -2.5
v 2.1 5.2 -2.5
v 2.2 5.2 -2.5
v 2.3 5.2 -2.5
v 2.4 5.2 -2.5
v 2.5 5.2 -2.5
v 2.6 5.2 -2.5
v 2.7 5.2 -2.5
v 2.8 5.2 -2.5
v 2.9 5.2 -2.5
v 3 5.2 -2.5
v 3.1 5.2 -2.5
v 3.2 5.2 -2.5
v 3.3 5.2 -2.5
v 3.4 5.2 -2.5
v 3.5 5.2 -2.5
v 1.8 5.2 -2.6
v 3.6 5.2 -2.6

# faces
f 3/12/1 2/12/1 1/12/1
f 4/12/1 2/12/1 3/12/1
f 9/13/1 6/13/1 5/13/1
f 10/13/1 6/13/1 9/13/1
f 11/13/1 8/13/1 7/13/1
f 12/13/1 8/13/1 11/13/1
f 15/19/1 14/19/1 13/19/1
f 16/19/1 14/19/1 15/19/1
f 19/8/1 18/8/1 17/8/1
f 20/8/1 18/8/1 19/8/1
f 23/9/1 22/9/1 21/9/1
f 24/9/1 22/9/1 23/9/1
f 27/6/1 26/6/1 25/6/1
f 28/6/1 26/6/1 27/6/1
f 31/1/1 30/1/1 29/1/1
f 32/1/1 30/1/1 31/1/1
f 35/5/1 34/5/1 33/5/1
f 36/5/1 34/5/1 35/5/1
f 39/4/1 38/4/1 37/4/1
f 40/4/1 38/4/1 39/4/1
f 43/20/1 42/20/1 41/20/1
f 44/20/1 42/20/1 43/20/1
f 49/13/1 46/13/1 45/13/1
f 50/13/1 46/13/1 49/13/1
f 51/13/1 48/13/1 47/13/1
f 52/13/1 48/13/1 51/13/1
f 53/13/1 48/13/1 52/13/1
f 54/13/1 48/13/1 53/13/1
f 57/12/1 56/12/1 55/12/1
f 58/12/1 56/12/1 57/12/1
f 59/12/2 60/12/2 61/12/2
f 61/12/2 60/12/2 62/12/2
f 63/13/2 64/13/2 67/13/2
f 67/13/2 64/13/2 68/13/2
f 65/13/2 66/13/2 69/13/2
f 69/13/2 66/13/2 70/13/2
f 70/13/2 66/13/2 71/13/2
f 71/13/2 66/13/2 72/13/2
f 73/19/2 74/19/2 75/19/2
f 75/19/2 74/19/2 76/19/2
f 77/2/2 78/2/2 79/2/2
f 79/2/2 78/2/2 80/2/2
f 81/6/2 82/6/2 83/6/2
f 83/6/2 82/6/2 84/6/2
f 85/15/2 86/15/2 87/15/2
f 87/15/2 86/15/2 88/15/2
f 89/1/2 90/1/2 91/1/2
f 91/1/2 90/1/2 92/1/2
f 93/4/2 94/4/2 95/4/2
f 95/4/2 94/4/2 96/4/2
f 97/3/2 98/3/2 99/3/2
f 99/3/2 98/3/2 100/3/2
f 101/8/2 102/8/2 103/8/2
f 103/8/2 102/8/2 104/8/2
f 105/13/2 106/13/2 109/13/2
f 109/13/2 106/13/2 110/13/2
f 107/13/2 108/13/2 111/13/2
f 111/13/2 108/13/2 112/13/2
f 113/12/2 114/12/2 115/12/2
f 115/12/2 114/12/2 116/12/2
f 119/12/3 118/12/3 117/12/3
f 120/12/3 118/12/3 119/12/3
f 123/13/3 122/13/3 121/13/3
f 124/13/3 122/13/3 123/13/3
f 127/13/3 126/13/3 125/13/3
f 128/13/3 126/13/3 127/13/3
f 131/19/3 130/19/3 129/19/3
f 132/19/3 130/19/3 131/19/3
f 135/6/3 134/6/3 133/6/3
f 136/6/3 134/6/3 135/6/3
f 139/1/3 138/1/3 137/1/3
f 140/1/3 138/1/3 139/1/3
f 143/4/3 142/4/3 141/4/3
f 144/4/3 142/4/3 143/4/3
f 147/8/3 146/8/3 145/8/3
f 148/8/3 146/8/3 147/8/3
f 151/13/3 150/13/3 149/13/3
f 152/13/3 150/13/3 151/13/3
f 155/8/3 154/8/3 153/8/3
f 156/8/3 154/8/3 155/8/3
f 159/8/3 158/8/3 157/8/3
f 160/8/3 158/8/3 159/8/3
f 163/8/3 162/8/3 161/8/3
f 164/8/3 162/8/3 163/8/3
f 167/13/3 166/13/3 165/13/3
f 168/13/3 166/13/3 167/13/3
f 169/13/4 170/13/4 171/13/4
f 171/13/4 170/13/4 172/13/4
f 173/13/4 174/13/4 175/13/4
f 175/13/4 174/13/4 176/13/4
f 177/6/4 178/6/4 179/6/4
f 179/6/4 178/6/4 180/6/4
f 181/1/4 182/1/4 183/1/4
f 183/1/4 182/1/4 184/1/4
f 185/4/4 186/4/4 187/4/4
f 187/4/4 186/4/4 188/4/4
f 189/19/4 190/19/4 191/19/4
f 191/19/4 190/19/4 192/19/4
f 193/8/4 194/8/4 195/8/4
f 195/8/4 194/8/4 196/8/4
f 197/8/4 198/8/4 199/8/4
f 199/8/4 198/8/4 200/8/4
f 201/8/4 202/8/4 203/8/4
f 203/8/4 202/8/4 204/8/4
f 205/8/4 206/8/4 207/8/4
f 207/8/4 206/8/4 208/8/4
f 209/12/4 210/12/4 211/12/4
f 211/12/4 210/12/4 212/12/4
f 213/13/4 214/13/4 216/13/4
f 214/13/4 215/13/4 216/13/4
f 216/13/4 215/13/4 217/13/4
f 218/13/4 219/13/4 220/13/4
f 220/13/4 219/13/4 221/13/4
f 221/13/4 219/13/4 222/13/4
f 223/12/4 224/12/4 225/12/4
f 225/12/4 224/12/4 226/12/4
f 226/12/4 224/12/4 228/12/4
f 227/12/4 228/12/4 229/12/4
f 228/12/4 224/12/4 230/12/4
f 229/12/4 228/12/4 230/12/4
f 235/13/5 232/13/5 231/13/5
f 236/13/5 232/13/5 235/13/5
f 237/13/5 234/13/5 233/13/5
f 238/13/5 234/13/5 237/13/5
f 243/13/5 240/13/5 239/13/5
f 244/13/5 240/13/5 243/13/5
f 245/13/5 242/13/5 241/13/5
f 246/13/5 242/13/5 245/13/5
f 249/12/5 248/12/5 247/12/5
f 250/12/5 248/12/5 249/12/5
f 251/12/5 248/12/5 250/12/5
f 252/12/5 248/12/5 251/12/5
f 253/12/5 249/12/5 247/12/5
f 254/12/5 251/12/5 250/12/5
f 255/12/5 251/12/5 254/12/5
f 256/12/5 248/12/5 252/12/5
f 257/12/5 255/12/5 254/12/5
f 257/12/5 256/12/5 255/12/5
f 257/12/5 253/12/5 247/12/5
f 257/12/5 254/12/5 253/12/5
f 258/12/5 256/12/5 257/12/5
f 259/12/5 256/12/5 258/12/5
f 260/12/5 248/12/5 256/12/5
f 260/12/5 256/12/5 259/12/5
f 261/12/5 259/12/5 258/12/5
f 262/12/5 259/12/5 261/12/5
f 263/12/5 257/12/5 247/12/5
f 264/12/5 248/12/5 260/12/5
f 265/12/5 263/12/5 247/12/5
f 266/12/5 263/12/5 265/12/5
f 267/12/5 248/12/5 264/12/5
f 268/12/5 248/12/5 267/12/5
f 272/12/5 270/12/5 269/12/5
f 273/12/5 270/12/5 272/12/5
f 275/12/5 272/12/5 271/12/5
f 275/12/5 274/12/5 273/12/5
f 275/12/5 273/12/5 272/12/5
f 276/12/5 274/12/5 275/12/5
f 277/12/6 278/12/6 279/12/6
f 279/12/6 278/12/6 280/12/6
f 280/12/6 278/12/6 281/12/6
f 281/12/6 278/12/6 282/12/6
f 282/12/6 278/12/6 283/12/6
f 283/12/6 278/12/6 284/12/6
f 284/12/6 278/12/6 285/12/6
f 285/12/6 278/12/6 286/12/6
f 280/12/6 281/12/6 287/12/6
f 282/12/6 283/12/6 288/12/6
f 288/12/6 283/12/6 289/12/6
f 284/12/6 285/12/6 290/12/6
f 290/12/6 285/12/6 291/12/6
f 286/12/6 278/12/6 292/12/6
f 277/12/6 279/12/6 293/12/6
f 291/12/6 292/12/6 294/12/6
f 290/12/6 291/12/6 294/12/6
f 288/12/6 289/12/6 294/12/6
f 280/12/6 287/12/6 294/12/6
f 289/12/6 290/12/6 294/12/6
f 287/12/6 288/12/6 294/12/6
f 293/12/6 294/12/6 295/12/6
f 292/12/6 278/12/6 296/12/6
f 295/12/6 294/12/6 296/12/6
f 294/12/6 292/12/6 296/12/6
f 293/12/6 295/12/6 297/12/6
f 296/12/6 278/12/6 298/12/6
f 277/12/6 293/12/6 299/12/6
f 297/12/6 298/12/6 299/12/6
f 293/12/6 297/12/6 299/12/6
f 298/12/6 278/12/6 300/12/6
f 299/12/6 298/12/6 300/12/6
f 301/19/6 302/19/6 309/19/6
f 309/19/6 302/19/6 310/19/6
f 301/19/6 309/19/6 311/19/6
f 309/4/6 310/4/6 312/4/6
f 311/19/6 309/19/6 312/19/6
f 310/19/6 302/19/6 313/19/6
f 312/4/6 310/4/6 313/4/6
f 313/19/6 302/19/6 314/19/6
f 301/19/6 311/19/6 315/19/6
f 311/4/6 312/4/6 316/4/6
f 315/19/6 311/19/6 316/19/6
f 312/19/6 313/19/6 317/19/6
f 316/4/6 312/4/6 317/4/6
f 313/4/6 314/4/6 318/4/6
f 317/19/6 313/19/6 318/19/6
f 314/19/6 302/19/6 319/19/6
f 318/4/6 314/4/6 319/4/6
f 319/19/6 302/19/6 320/19/6
f 301/19/6 315/19/6 321/19/6
f 315/4/6 316/4/6 322/4/6
f 321/19/6 315/19/6 322/19/6
f 317/19/6 318/19/6 323/19/6
f 322/4/6 316/4/6 323/4/6
f 316/19/6 317/19/6 323/19/6
f 318/19/6 319/19/6 323/19/6
f 319/4/6 320/4/6 324/4/6
f 323/19/6 319/19/6 324/19/6
f 320/19/6 302/19/6 325/19/6
f 324/4/6 320/4/6 325/4/6
f 325/19/6 302/19/6 326/19/6
f 323/19/6 324/19/6 327/19/6
f 322/19/6 323/19/6 327/19/6
f 325/4/6 326/4/6 327/4/6
f 324/19/6 325/19/6 327/19/6
f 326/19/6 302/19/6 328/19/6
f 327/4/6 326/4/6 328/4/6
f 328/19/6 302/19/6 329/19/6
f 303/6/6 304/6/6 330/6/6
f 330/6/6 304/6/6 331/6/6
f 305/1/6 306/1/6 332/1/6
f 332/1/6 306/1/6 333/1/6
f 307/4/6 308/4/6 334/4/6
f 334/4/6 308/4/6 335/4/6
f 321/4/6 322/4/6 336/4/6
f 301/19/6 321/19/6 336/19/6
f 322/19/6 327/19/6 337/19/6
f 336/4/6 322/4/6 337/4/6
f 327/19/6 328/19/6 337/19/6
f 328/4/6 329/4/6 338/4/6
f 337/19/6 328/19/6 338/19/6
f 329/19/6 302/19/6 339/19/6
f 338/4/6 329/4/6 339/4/6
f 339/19/6 302/19/6 340/19/6
f 337/19/6 338/19/6 341/19/6
f 336/6/6 337/6/6 341/6/6
f 338/19/6 339/19/6 341/19/6
f 341/19/6 339/19/6 342/19/6
f 342/19/6 339/19/6 343/19/6
f 339/4/6 340/4/6 344/4/6
f 343/19/6 339/19/6 344/19/6
f 342/19/6 343/19/6 345/19/6
f 343/6/6 344/6/6 346/6/6
f 345/19/6 343/19/6 346/19/6
f 344/4/6 340/4/6 347/4/6
f 346/6/6 344/6/6 347/6/6
f 340/19/6 302/19/6 348/19/6
f 347/4/6 340/4/6 348/4/6
f 301/19/6 336/19/6 349/19/6
f 336/6/6 341/6/6 350/6/6
f 349/19/6 336/19/6 350/19/6
f 341/6/6 342/6/6 350/6/6
f 342/19/6 345/19/6 351/19/6
f 350/6/6 342/6/6 351/6/6
f 346/6/6 347/6/6 352/6/6
f 351/19/6 345/19/6 352/19/6
f 345/6/6 346/6/6 352/6/6
f 352/6/6 347/6/6 353/6/6
f 347/19/6 348/19/6 354/19/6
f 353/6/6 347/6/6 354/6/6
f 350/6/6 351/6/6 355/6/6
f 349/6/6 350/6/6 355/6/6
f 352/6/6 353/6/6 355/6/6
f 351/6/6 352/6/6 355/6/6
f 355/6/6 353/6/6 356/6/6
f 356/6/6 353/6/6 357/6/6
f 353/19/6 354/19/6 358/19/6
f 357/6/6 353/6/6 358/6/6
f 349/6/6 355/6/6 359/6/6
f 359/6/6 355/6/6 360/6/6
f 355/4/6 356/4/6 361/4/6
f 360/6/6 355/6/6 361/6/6
f 356/6/6 357/6/6 362/6/6
f 361/4/6 356/4/6 362/4/6
f 362/6/6 357/6/6 363/6/6
f 363/6/6 357/6/6 364/6/6
f 354/19/6 348/19/6 365/19/6
f 348/19/6 302/19/6 365/19/6
f 358/19/6 354/19/6 365/19/6
f 357/19/6 358/19/6 365/19/6
f 365/19/6 302/19/6 366/19/6
f 301/19/6 349/19/6 367/19/6
f 349/6/6 359/6/6 367/6/6
f 367/6/6 359/6/6 368/6/6
f 359/4/6 360/4/6 369/4/6
f 368/6/6 359/6/6 369/6/6
f 360/6/6 361/6/6 370/6/6
f 369/4/6 360/4/6 370/4/6
f 362/6/6 363/6/6 370/6/6
f 361/6/6 362/6/6 370/6/6
f 370/6/6 363/6/6 371/6/6
f 364/6/6 357/6/6 372/6/6
f 357/19/6 365/19/6 373/19/6
f 372/6/6 357/6/6 373/6/6
f 373/19/6 365/19/6 374/19/6
f 374/19/6 365/19/6 375/19/6
f 368/6/6 369/6/6 376/6/6
f 367/19/6 368/19/6 376/19/6
f 369/6/6 370/6/6 376/6/6
f 376/6/6 370/6/6 377/6/6
f 370/4/6 371/4/6 378/4/6
f 377/6/6 370/6/6 378/6/6
f 371/6/6 363/6/6 379/6/6
f 378/4/6 371/4/6 379/4/6
f 363/4/6 364/4/6 380/4/6
f 379/6/6 363/6/6 380/6/6
f 364/6/6 372/6/6 381/6/6
f 380/4/6 364/4/6 381/4/6
f 374/1/6 375/1/6 382/1/6
f 373/19/6 374/19/6 382/19/6
f 372/19/6 373/19/6 382/19/6
f 375/19/6 365/19/6 383/19/6
f 382/1/6 375/1/6 383/1/6
f 365/1/6 366/1/6 384/1/6
f 383/19/6 365/19/6 384/19/6
f 366/19/6 302/19/6 385/19/6
f 384/1/6 366/1/6 385/1/6
f 301/19/6 367/19/6 386/19/6
f 376/19/6 377/19/6 386/19/6
f 367/19/6 376/19/6 386/19/6
f 377/6/6 378/6/6 387/6/6
f 386/19/6 377/19/6 387/19/6
f 378/6/6 379/6/6 387/6/6
f 379/6/6 380/6/6 387/6/6
f 380/6/6 381/6/6 387/6/6
f 387/6/6 381/6/6 388/6/6
f 381/6/6 372/6/6 389/6/6
f 388/6/6 381/6/6 389/6/6
f 372/19/6 382/19/6 390/19/6
f 389/6/6 372/6/6 390/6/6
f 382/19/6 383/19/6 390/19/6
f 390/19/6 383/19/6 391/19/6
f 391/19/6 383/19/6 392/19/6
f 383/1/6 384/1/6 393/1/6
f 392/19/6 383/19/6 393/19/6
f 384/19/6 385/19/6 394/19/6
f 393/1/6 384/1/6 394/1/6
f 385/19/6 302/19/6 395/19/6
f 394/19/6 385/19/6 395/19/6
f 301/19/6 386/19/6 396/19/6
f 387/6/6 388/6/6 396/6/6
f 386/6/6 387/6/6 396/6/6
f 396/6/6 388/6/6 397/6/6
f 397/6/6 388/6/6 398/6/6
f 388/19/6 389/19/6 399/19/6
f 398/6/6 388/6/6 399/6/6
f 390/6/6 391/6/6 400/6/6
f 399/19/6 389/19/6 400/19/6
f 389/6/6 390/6/6 400/6/6
f 400/6/6 391/6/6 401/6/6
f 391/19/6 392/19/6 402/19/6
f 402/19/6 392/19/6 403/19/6
f 392/1/6 393/1/6 404/1/6
f 403/19/6 392/19/6 404/19/6
f 393/19/6 394/19/6 405/19/6
f 404/1/6 393/1/6 405/1/6
f 397/6/6 398/6/6 406/6/6
f 396/19/6 397/19/6 406/19/6
f 398/19/6 399/19/6 407/19/6
f 406/6/6 398/6/6 407/6/6
f 399/19/6 400/19/6 407/19/6
f 400/19/6 401/19/6 407/19/6
f 402/1/6 403/1/6 408/1/6
f 391/19/6 402/19/6 408/19/6
f 403/19/6 404/19/6 409/19/6
f 408/1/6 403/1/6 409/1/6
f 404/19/6 405/19/6 409/19/6
f 409/19/6 405/19/6 410/19/6
f 405/19/6 394/19/6 411/19/6
f 410/19/6 405/19/6 411/19/6
f 394/1/6 395/1/6 411/1/6
f 395/19/6 302/19/6 412/19/6
f 411/1/6 395/1/6 412/1/6
f 407/19/6 401/19/6 413/19/6
f 401/6/6 391/6/6 413/6/6
f 406/19/6 407/19/6 413/19/6
f 391/19/6 408/19/6 414/19/6
f 413/6/6 391/6/6 414/6/6
f 408/19/6 409/19/6 414/19/6
f 410/19/6 411/19/6 415/19/6
f 409/1/6 410/1/6 415/1/6
f 411/19/6 412/19/6 415/19/6
f 415/19/6 412/19/6 416/19/6
f 414/19/6 409/19/6 417/19/6
f 413/19/6 414/19/6 417/19/6
f 415/1/6 416/1/6 418/1/6
f 417/19/6 409/19/6 418/19/6
f 409/1/6 415/1/6 418/1/6
f 416/19/6 412/19/6 419/19/6
f 418/1/6 416/1/6 419/1/6
f 419/19/6 412/19/6 420/19/6
f 413/19/6 417/19/6 421/19/6
f 417/1/6 418/1/6 422/1/6
f 421/19/6 417/19/6 422/19/6
f 418/1/6 419/1/6 422/1/6
f 419/1/6 420/1/6 422/1/6
f 420/19/6 412/19/6 423/19/6
f 422/1/6 420/1/6 423/1/6
f 412/19/6 302/19/6 424/19/6
f 423/19/6 412/19/6 424/19/6
f 422/1/6 423/1/6 425/1/6
f 421/1/6 422/1/6 425/1/6
f 423/1/6 424/1/6 425/1/6
f 425/1/6 424/1/6 426/1/6
f 413/19/6 421/19/6 427/19/6
f 421/1/6 425/1/6 427/1/6
f 425/19/6 426/19/6 428/19/6
f 427/1/6 425/1/6 428/1/6
f 426/1/6 424/1/6 429/1/6
f 428/19/6 426/19/6 429/19/6
f 424/19/6 302/19/6 430/19/6
f 429/1/6 424/1/6 430/1/6
f 427/19/6 428/19/6 431/19/6
f 428/19/6 429/19/6 431/19/6
f 429/19/6 430/19/6 431/19/6
f 413/19/6 427/19/6 431/19/6
f 406/19/6 413/19/6 431/19/6
f 396/19/6 406/19/6 431/19/6
f 301/19/6 396/19/6 431/19/6
f 430/19/6 302/19/6 432/19/6
f 431/19/6 430/19/6 432/19/6
f 433/8/6 434/8/6 439/8/6
f 439/8/6 434/8/6 440/8/6
f 435/8/6 436/8/6 441/8/6
f 441/8/6 436/8/6 442/8/6
f 437/8/6 438/8/6 443/8/6
f 443/8/6 438/8/6 444/8/6
f 445/8/6 446/8/6 447/8/6
f 447/8/6 446/8/6 448/8/6
f 448/8/6 446/8/6 449/8/6
f 449/8/6 446/8/6 450/8/6
f 450/8/6 446/8/6 451/8/6
f 451/8/6 446/8/6 452/8/6
f 452/8/6 446/8/6 453/8/6
f 453/8/6 446/8/6 454/8/6
f 454/8/6 446/8/6 455/8/6
f 455/8/6 446/8/6 456/8/6
f 456/8/6 446/8/6 457/8/6
f 457/8/6 446/8/6 458/8/6
f 458/8/6 446/8/6 459/8/6
f 459/8/6 446/8/6 460/8/6
f 460/8/6 446/8/6 461/8/6
f 461/8/6 446/8/6 462/8/6
f 462/8/6 446/8/6 463/8/6
f 445/8/6 447/8/6 464/8/6
f 447/2/6 448/2/6 464/2/6
f 464/2/6 448/2/6 465/2/6
f 449/9/6 450/9/6 466/9/6
f 450/10/6 451/10/6 467/10/6
f 466/9/6 450/9/6 467/9/6
f 451/11/6 452/11/6 468/11/6
f 467/10/6 451/10/6 468/10/6
f 452/13/6 453/13/6 469/13/6
f 468/11/6 452/11/6 469/11/6
f 453/14/6 454/14/6 470/14/6
f 469/13/6 453/13/6 470/13/6
f 454/15/6 455/15/6 471/15/6
f 470/14/6 454/14/6 471/14/6
f 471/15/6 455/15/6 472/15/6
f 456/5/6 457/5/6 473/5/6
f 457/7/6 458/7/6 474/7/6
f 473/5/6 457/5/6 474/5/6
f 458/3/6 459/3/6 475/3/6
f 474/7/6 458/7/6 475/7/6
f 475/3/6 459/3/6 476/3/6
f 460/20/6 461/20/6 477/20/6
f 461/18/6 462/18/6 478/18/6
f 477/20/6 461/20/6 478/20/6
f 462/17/6 463/17/6 479/17/6
f 478/18/6 462/18/6 479/18/6
f 463/8/6 446/8/6 480/8/6
f 479/17/6 463/17/6 480/17/6
f 478/8/6 479/8/6 481/8/6
f 477/8/6 478/8/6 481/8/6
f 479/8/6 480/8/6 481/8/6
f 476/8/6 477/8/6 481/8/6
f 474/8/6 475/8/6 481/8/6
f 464/8/6 465/8/6 481/8/6
f 470/8/6 471/8/6 481/8/6
f 465/8/6 466/8/6 481/8/6
f 445/8/6 464/8/6 481/8/6
f 473/8/6 474/8/6 481/8/6
f 472/8/6 473/8/6 481/8/6
f 471/8/6 472/8/6 481/8/6
f 475/8/6 476/8/6 481/8/6
f 469/8/6 470/8/6 481/8/6
f 468/8/6 469/8/6 481/8/6
f 467/8/6 468/8/6 481/8/6
f 466/8/6 467/8/6 481/8/6
f 480/8/6 446/8/6 482/8/6
f 481/8/6 480/8/6 482/8/6
